# xmcd
#
# Track frame offsets:
#	150
#	14435
#	26187
#	39472
#	50067
#	63420
#	76120
#	86892
#	99320
#	111412
#	123745
#	139590
#	158302
#	168890
#	180345
#
# Disc length: 2567 seconds
#
# Revision: 2
# Processed by: cddbd v1.5.2PL0 Copyright (c) Steve Scherf et al.
# Submitted via: audiograbber 1.83.01
#
DISCID=bc0a050f
DTITLE=Walter Jackson - The Best Of
DYEAR=1900
DGENRE=Oldies
TTITLE0=My Ship Is Comin' In
TTITLE1=What Would You Do 
TTITLE2=It's All Over
TTITLE3=That's What Mama Say
TTITLE4=Suddenly I'm All Alone
TTITLE5=It's An Uphill Climb (To The Bottom)
TTITLE6=Tear For Tear
TTITLE7=After You There Can Be Nothing
TTITLE8=Speak Her Name
TTITLE9=Lee Cross
TTITLE10=Moonlight In Vermont
TTITLE11=Funny (Not Much)
TTITLE12=A Corner In The Sun
TTITLE13=There Goes That Song Again
TTITLE14=Welcome Home
EXTD=
EXTT0=
EXTT1=
EXTT2=
EXTT3=
EXTT4=
EXTT5=
EXTT6=
EXTT7=
EXTT8=
EXTT9=
EXTT10=
EXTT11=
EXTT12=
EXTT13=
EXTT14=
PLAYORDER=
